<?xml version="1.0" standalone="no"?>
<!DOCTYPE svg PUBLIC "-//W3C//DTD SVG 20010904//EN"
 "http://www.w3.org/TR/2001/REC-SVG-20010904/DTD/svg10.dtd">
<svg version="1.0" xmlns="http://www.w3.org/2000/svg"
 width="442.000000pt" height="442.000000pt" viewBox="0 0 442.000000 442.000000"
 preserveAspectRatio="xMidYMid meet">
<metadata>
Created by potrace 1.14, written by Peter Selinger 2001-2017
</metadata>
<g transform="translate(0.000000,442.000000) scale(0.100000,-0.100000)"
fill="#000000" stroke="none">
<path d="M1830 4410 c-93 -13 -134 -19 -155 -24 -197 -42 -334 -117 -381 -208
-24 -47 -13 -126 24 -180 58 -84 162 -165 309 -241 59 -31 79 -37 115 -33 24
2 60 5 81 5 l38 1 -74 73 c-83 82 -121 140 -136 208 -20 91 19 158 122 207 92
44 156 56 312 56 164 1 219 -5 385 -38 146 -30 339 -93 500 -163 69 -30 132
-57 140 -61 29 -12 -66 80 -141 138 -122 91 -309 175 -480 215 -104 24 -108
24 -164 31 -27 4 -54 9 -59 12 -14 8 -376 10 -436 2z m125 -66 c-175 -39 -226
-57 -286 -105 -120 -95 -125 -249 -12 -397 l25 -34 -43 23 c-113 57 -240 161
-277 226 -6 13 -12 38 -12 56 0 98 205 196 465 223 33 4 61 7 62 8 2 1 24 3
50 3 27 1 39 -1 28 -3z"/>
<path d="M2262 3688 c-35 -4 -100 -14 -145 -23 -45 -10 -145 -19 -222 -21
-157 -4 -165 -5 -284 -29 -52 -10 -138 -37 -178 -56 -24 -10 -46 -19 -49 -19
-4 0 -43 -21 -88 -46 -314 -180 -552 -500 -696 -935 -22 -67 -42 -131 -44
-143 -2 -11 -11 -50 -19 -86 -36 -155 -53 -313 -61 -570 -6 -169 -56 -269
-210 -421 -61 -61 -73 -77 -55 -74 13 2 49 6 79 9 105 12 215 38 278 68 l64
30 -9 72 c-10 90 -10 461 -1 541 18 138 26 184 54 295 45 183 110 340 201 495
74 124 161 240 181 240 31 0 23 -31 -26 -96 -194 -257 -319 -583 -361 -944
-10 -79 -7 -486 2 -535 3 -14 8 -47 12 -75 5 -44 11 -83 31 -190 25 -141 132
-495 183 -610 5 -11 18 -40 28 -63 l19 -44 48 71 c28 43 54 71 64 70 9 0 114
-76 232 -169 118 -92 217 -167 218 -165 2 2 -15 50 -37 106 -23 57 -41 109
-41 116 0 7 -4 21 -9 31 -35 64 -183 591 -206 732 -3 19 -8 43 -11 52 -6 19
-8 29 -30 148 -21 111 -21 109 -28 155 -7 40 -8 53 -21 155 -3 30 -8 62 -10
70 -2 8 -7 67 -11 130 -15 234 -7 453 22 584 8 39 17 81 20 94 9 45 42 117 58
127 32 20 34 -14 5 -101 -16 -47 -32 -108 -35 -137 -6 -51 -5 -54 61 -162 95
-155 92 -151 98 -128 18 60 27 155 27 289 0 84 4 155 8 158 4 2 13 2 19 -2 18
-11 69 -121 97 -203 13 -41 34 -95 47 -122 23 -46 23 -47 36 -25 15 28 30 79
38 133 4 22 10 58 15 80 5 22 10 83 11 136 3 162 41 334 99 449 l28 55 -3 -60
c-1 -33 -14 -96 -28 -140 -21 -66 -33 -125 -42 -210 -1 -5 3 -16 9 -23 5 -7 8
-41 6 -75 -4 -100 -3 -157 4 -247 6 -72 17 -138 63 -396 4 -26 9 -30 34 -28
16 1 29 -3 30 -9 6 -95 33 -196 76 -282 19 -38 38 -73 41 -77 9 -9 8 340 -1
367 -21 67 -27 247 -14 405 11 124 11 125 39 128 24 3 26 1 22 -30 -22 -172
-24 -352 -5 -463 14 -80 19 -140 20 -243 l1 -72 65 41 c70 44 62 44 118 -1 54
-44 81 -177 68 -332 -4 -38 -3 -68 1 -68 10 0 92 135 122 200 34 75 56 163 65
258 2 21 47 14 58 -10 8 -19 11 -14 21 37 6 33 14 76 17 95 3 19 7 46 10 60
27 138 36 356 21 483 -6 45 -5 47 18 47 30 0 35 -20 38 -143 2 -49 5 -90 9
-93 4 -2 14 24 23 57 55 193 55 391 2 600 -9 33 -16 88 -16 122 l1 62 24 -56
c58 -134 84 -301 78 -489 l-3 -115 37 -62 c20 -35 39 -63 43 -63 3 0 12 21 18
47 17 62 103 238 130 265 20 20 27 -19 28 -162 1 -136 10 -255 21 -273 2 -4
19 10 36 31 18 21 47 56 65 78 19 21 45 62 58 90 24 51 24 52 9 120 -9 37 -25
94 -37 126 -21 61 -19 88 6 88 31 0 91 -211 103 -365 15 -183 8 -443 -18 -640
-11 -85 -12 -90 -30 -200 -6 -38 -13 -81 -15 -95 -2 -14 -15 -79 -29 -145 -15
-66 -28 -131 -31 -145 -6 -32 -32 -132 -50 -195 -8 -27 -16 -61 -19 -74 -12
-65 -146 -477 -187 -575 -15 -38 -27 -70 -25 -72 2 -3 154 113 292 222 114 90
150 114 164 112 8 -2 33 -31 55 -65 23 -34 46 -62 51 -62 28 -2 200 512 229
684 2 17 9 53 15 80 5 28 13 77 16 110 4 33 9 68 11 78 16 88 22 384 10 513
-36 374 -151 686 -358 972 -57 79 -67 112 -35 112 17 0 129 -150 189 -255 110
-189 195 -428 228 -640 6 -38 13 -81 15 -95 10 -52 18 -198 18 -295 0 -115
-11 -303 -18 -314 -2 -4 2 -17 9 -27 12 -17 39 -31 141 -75 38 -17 161 -41
276 -55 l51 -6 -86 86 c-131 132 -267 351 -260 421 5 54 5 299 -1 355 -11 112
-27 208 -51 305 -89 355 -235 626 -463 856 -130 131 -234 207 -378 278 -219
109 -487 157 -721 129z"/>
<path d="M1442 1902 c-109 -55 -186 -172 -226 -345 -5 -21 2 -44 25 -90 28
-56 104 -167 114 -167 2 0 -1 15 -7 33 -21 68 -26 99 -26 163 0 227 147 383
301 319 40 -17 102 -84 125 -135 38 -89 47 -207 24 -308 -10 -43 -10 -43 10
-25 23 20 108 137 108 148 0 3 -18 32 -40 63 -24 32 -49 85 -61 126 -61 208
-197 294 -347 218z"/>
<path d="M2765 1923 c-78 -22 -148 -112 -186 -237 -11 -38 -33 -87 -47 -109
-62 -91 -60 -80 -19 -139 20 -30 50 -67 67 -83 l31 -30 -11 30 c-16 39 -20
187 -8 234 55 204 227 293 346 178 97 -93 137 -280 88 -414 -8 -24 -12 -43 -8
-43 12 0 78 92 108 151 31 61 32 87 5 168 -44 134 -119 235 -204 275 -40 18
-128 29 -162 19z"/>
<path d="M2020 1095 c-69 -31 -172 -73 -230 -93 -92 -31 -117 -36 -205 -36
-88 -1 -107 2 -156 25 -31 15 -72 42 -91 62 l-36 35 30 -111 c16 -62 33 -125
38 -142 4 -16 22 -74 39 -128 l32 -98 74 -58 c97 -77 237 -164 351 -217 233
-108 305 -117 457 -58 159 63 344 163 452 247 85 66 167 142 180 166 13 26 92
296 101 348 l5 28 -28 -27 c-56 -54 -117 -73 -233 -72 -126 1 -209 24 -425
116 -190 82 -199 82 -355 13z m280 -515 c18 -29 -8 -36 -132 -34 -157 2 -148
1 -148 23 0 25 11 27 153 26 91 -1 120 -4 127 -15z"/>
</g>
</svg>
